:version 1.10
:name ASF
:units
  mass 1
  length 1
  angle deg
:documentation
  ASF file generated by Kaydara
:root
  axis xyz
  order  tx ty tz rx ry rz
  position 0 0 0
  orientation 0 0 0
:bonedata
  begin
    id 1
    name RightUpLegDummy
    direction -0.718183 -0.695806 0.00816078
    length 4.904
    axis 0 0 0 xyz
  end
  begin
    id 2
    name RightUpLeg
    direction 3.53373e-006 -0.995788 0.0916898
    length 17.4976
    axis -3.49089 -0.000906625 0.000286804 xyz
    dof rx ry rz
  end
  begin
    id 3
    name RightLeg
    direction 0.00371092 -0.995096 -0.0988419
    length 16.5821
    axis 3.68512 0.0193738 -0.131023 xyz
    dof rx ry rz
  end
  begin
    id 4
    name RightFoot
    direction 0.00079151 -0.46099 0.887405
    length 3.77069
    axis 4.81691e-005 -0.120479 -0.188788 xyz
    dof rx ry rz
  end
  begin
    id 5
    name RightToes
    direction 0 0 0
    length 0
    axis 0 0 0 xyz
    dof rx ry rz
  end
  begin
    id 6
    name SpineDummy
    direction 8.3039e-015 1 4.57515e-016
    length 4.6813
    axis 0 0 0 xyz
  end
  begin
    id 7
    name Spine
    direction -3.15643e-008 0.999988 0.00495137
    length 10.1015
    axis -0.001389 0.000121418 2.40972e-006 xyz
    dof rx ry rz
  end
  begin
    id 8
    name Spine1
    direction 0 0 0
    length 0
    axis -0.001389 0.000121451 1.30017e-006 xyz
    dof rx ry rz
  end
  begin
    id 9
    name HEadDummy
    direction -1.99912e-008 0.999999 0.00127422
    length 3.43865
    axis -0.001389 0.000121451 1.30017e-006 xyz
  end
  begin
    id 10
    name HEad
    direction 0 0 0
    length 0
    axis 0 0 0 xyz
    dof rx ry rz
  end
  begin
    id 11
    name LeftShoulder1Dummy
    direction 0.998891 -0.0402509 -0.0244456
    length 3.5433
    axis -0.001389 0.000121451 1.30017e-006 xyz
  end
  begin
    id 12
    name LeftShoulder1
    direction 0.99951 -0.000327763 0.0313091
    length 4.05031
    axis -0.001389 0.000121451 1.30017e-006 xyz
    dof rx ry rz
  end
  begin
    id 13
    name LeftArm
    direction 0.998561 -0.00100056 -0.0536182
    length 10.3537
    axis -23.1894 0.134784 0.967509 xyz
    dof rx ry rz
  end
  begin
    id 14
    name LeftForeArm
    direction 0.998903 0.00866432 0.046012
    length 8.70632
    axis -9.91835 -0.06569 -0.177794 xyz
    dof rx ry rz
  end
  begin
    id 15
    name LeftHand
    direction 0 0 0
    length 0
    axis 0 0 0 xyz
    dof rx ry rz
  end
  begin
    id 16
    name RightShoulderDummy
    direction -0.998891 -0.0402509 -0.0244414
    length 3.5433
    axis -0.001389 0.000121451 1.30017e-006 xyz
  end
  begin
    id 17
    name RightShoulder
    direction -0.99951 -0.000327807 0.0313133
    length 4.05031
    axis 0.215806 0.000203643 -0.0068026 xyz
    dof rx ry rz
  end
  begin
    id 18
    name RightArm
    direction -0.998573 -0.000999564 -0.053403
    length 10.3947
    axis -23.2009 -0.134239 -0.964101 xyz
    dof rx ry rz
  end
  begin
    id 19
    name RightForeArm
    direction -0.998898 0.00868028 0.0461306
    length 8.68355
    axis -9.92322 0.0658061 0.178868 xyz
    dof rx ry rz
  end
  begin
    id 20
    name RightHand
    direction 0 0 0
    length 0
    axis 0 0 0 xyz
    dof rx ry rz
  end
  begin
    id 21
    name LeftUpLegDummy
    direction 0.718183 -0.695806 0.00816078
    length 4.904
    axis 0 0 0 xyz
  end
  begin
    id 22
    name LeftUpLeg
    direction -6.81752e-006 -0.995793 0.0916337
    length 17.4976
    axis -3.48766 0.00143442 -0.000524262 xyz
    dof rx ry rz
  end
  begin
    id 23
    name LeftLeg
    direction -0.00601358 -0.995091 -0.0987824
    length 16.5821
    axis 3.68178 -0.00654042 -0.000285133 xyz
    dof rx ry rz
  end
  begin
    id 24
    name LeftFoot
    direction -0.00417578 -0.460984 0.887399
    length 3.77069
    axis 1.87233e-006 4.66016e-005 -8.6538e-006 xyz
    dof rx ry rz
  end
  begin
    id 25
    name LeftToes
    direction 0 0 0
    length 0
    axis 0 0 0 xyz
    dof rx ry rz
  end
:hierarchy
  begin
    root RightUpLegDummy SpineDummy LeftUpLegDummy
    RightUpLegDummy RightUpLeg
    RightUpLeg RightLeg
    RightLeg RightFoot
    RightFoot RightToes
    SpineDummy Spine
    Spine Spine1
    Spine1 HEadDummy LeftShoulder1Dummy RightShoulderDummy
    HEadDummy HEad
    LeftShoulder1Dummy LeftShoulder1
    LeftShoulder1 LeftArm
    LeftArm LeftForeArm
    LeftForeArm LeftHand
    RightShoulderDummy RightShoulder
    RightShoulder RightArm
    RightArm RightForeArm
    RightForeArm RightHand
    LeftUpLegDummy LeftUpLeg
    LeftUpLeg LeftLeg
    LeftLeg LeftFoot
    LeftFoot LeftToes
  end

:SAMPLES-PER-SECOND 30
:FULLY-SPECIFIED
:DEGREES
1126
root  8.18719 37.1369 -6.3942 49.1909 86.7058 47.7744
RightUpLeg  -30.5794 -11.7944 -15.3572
RightLeg  42.4654 -8.84636 -8.87399
RightFoot  -8.36279 -0.191377 4.95945
RightToes  0.000481921 0.542163 -0.142578
Spine  49.9242 -3.09558 2.12735
Spine1  -6.60218 -1.98637 -2.80608
HEad  -29.6451 -0.491834 2.56831
LeftShoulder1  8.32172 -14.7909 -39.2744
LeftArm  2.18341 -13.9986 -42.8032
LeftForeArm  -175.636 -62.0277 -162.757
LeftHand  -0.25398 0.0180481 5.50724
RightShoulder  4.80079 10.9026 27.2908
RightArm  0.0585873 9.23241 47.9023
RightForeArm  165.178 62.9248 160.227
RightHand  -1.45667 3.89094 -18.4014
LeftUpLeg  -30.9852 9.46183 -3.19415
LeftLeg  41.0784 4.84949 4.90547
LeftFoot  -9.97439 0.0882279 -2.3785
LeftToes  1.06245e-005 4.65868e-005 -8.65517e-006
1127
root  8.19908 37.1018 -5.89182 56.5962 86.3977 54.5919
RightUpLeg  -29.7213 -12.2328 -15.4913
RightLeg  39.3426 -8.16061 -7.37835
RightFoot  -6.70389 -0.365926 7.92945
RightToes  0.000481921 0.542163 -0.142578
Spine  49.5821 -2.88967 1.77196
Spine1  -7.05437 -2.01106 -2.33578
HEad  -30.6586 -0.458438 2.85167
LeftShoulder1  8.53353 -15.0368 -39.7867
LeftArm  2.11237 -13.7055 -42.4053
LeftForeArm  -175.749 -62.0563 -162.726
LeftHand  -0.25398 0.0180481 5.50724
RightShoulder  4.79955 10.8771 27.3347
RightArm  0.374347 8.76747 48.1104
RightForeArm  165.295 62.8116 160.329
RightHand  -1.43075 3.78995 -18.2736
LeftUpLeg  -31.5846 9.5559 -2.96367
LeftLeg  40.96 4.51711 4.58109
LeftFoot  -9.63824 0.101739 -2.95246
LeftToes  1.06245e-005 4.65868e-005 -8.65517e-006
1128
root  8.20797 37.1925 -5.44672 54.6561 86.5055 52.6014
RightUpLeg  -29.4504 -13.3444 -14.527
RightLeg  38.5906 -7.34755 -6.51443
RightFoot  -5.50384 -0.46394 8.38027
RightToes  0.000481921 0.542163 -0.142578
Spine  49.8471 -3.43658 2.62362
Spine1  -7.57017 -2.10119 -2.82347
HEad  -31.7924 -0.252894 2.93669
LeftShoulder1  8.65607 -15.2035 -40.0182
LeftArm  1.93869 -13.5488 -42.0809
LeftForeArm  -175.935 -61.9468 -162.786
LeftHand  -0.25398 0.0180481 5.50724
RightShoulder  4.79795 10.8439 27.3775
RightArm  0.861676 8.9014 48.1259
RightForeArm  165.403 62.8288 160.326
RightHand  -1.42335 3.77203 -18.2159
LeftUpLeg  -31.2383 9.03232 -1.88473
LeftLeg  40.3147 4.59017 4.54878
LeftFoot  -9.0933 0.128352 -3.74985
LeftToes  1.06245e-005 4.65868e-005 -8.65517e-006
1129
root  8.19366 37.3649 -4.93338 43.9951 86.5062 42.1859
RightUpLeg  -29.3871 -14.2577 -12.8245
RightLeg  38.5182 -6.73039 -5.98541
RightFoot  -5.35154 -0.372268 6.39552
RightToes  0.000481921 0.542163 -0.142578
Spine  50.3056 -3.64419 3.28097
Spine1  -7.89789 -1.99921 -2.90143
HEad  -32.6532 0.146111 2.88564
LeftShoulder1  8.64331 -15.1938 -39.9759
LeftArm  1.77359 -13.6757 -41.9674
LeftForeArm  -176.092 -61.8934 -162.809
LeftHand  -0.25398 0.0180481 5.50724
RightShoulder  4.79514 10.8406 27.3934
RightArm  1.32218 9.51744 47.9636
RightForeArm  165.543 62.9467 160.246
RightHand  -1.43427 3.8437 -18.2159
LeftUpLeg  -30.3127 8.93003 -0.326928
LeftLeg  39.2663 5.02379 4.76995
LeftFoot  -8.23025 0.174881 -4.61755
LeftToes  1.06245e-005 4.65868e-005 -8.65517e-006
1130
root  8.15055 37.5258 -4.24687 32.9491 86.2726 31.1807
RightUpLeg  -29.328 -14.6866 -10.8195
RightLeg  37.9026 -6.44157 -5.62342
RightFoot  -5.49862 -0.262522 4.41242
RightToes  0.000481921 0.542163 -0.142578
Spine  50.3273 -2.89002 2.99826
Spine1  -7.9992 -1.56553 -1.67729
HEad  -32.8948 0.50963 2.94575
LeftShoulder1  8.58685 -15.1394 -39.817
LeftArm  1.88246 -13.9984 -42.1374
LeftForeArm  -176.077 -61.9853 -162.746
LeftHand  -0.25398 0.0180481 5.50724
RightShoulder  4.79226 10.8461 27.3649
RightArm  1.39736 9.81986 47.6644
RightForeArm  165.431 62.9951 160.195
RightHand  -1.43419 3.83768 -18.2262
LeftUpLeg  -29.5087 9.72349 1.33965
LeftLeg  37.9226 5.11443 4.63931
LeftFoot  -7.18832 0.235485 -5.30812
LeftToes  1.06245e-005 4.65868e-005 -8.65517e-006
1131
root  8.11446 37.6328 -3.49989 25.232 85.9596 23.1626
RightUpLeg  -29.5124 -15.1082 -8.86531
RightLeg  37.2375 -6.13833 -5.25384
RightFoot  -5.52167 -0.223305 3.65331
RightToes  0.000481921 0.542163 -0.142578
Spine  49.7275 -1.91712 2.57575
Spine1  -7.97992 -1.01663 -0.364763
HEad  -32.6491 0.651043 3.16679
LeftShoulder1  8.54778 -15.1242 -39.6537
LeftArm  2.23654 -14.2575 -42.4587
LeftForeArm  -175.913 -61.9977 -162.753
LeftHand  -0.25398 0.0180481 5.50724
RightShoulder  4.79449 10.8261 27.4287
RightArm  1.1365 9.5625 47.2681
RightForeArm  164.874 63.0406 160.103
RightHand  -1.41019 3.66916 -18.2476
LeftUpLeg  -29.0917 10.7281 2.9292
LeftLeg  36.5653 4.46006 3.91423
LeftFoot  -6.28276 0.299204 -5.91511
LeftToes  1.06245e-005 4.65868e-005 -8.65517e-006
1132
root  8.12769 37.7445 -2.86282 19.1217 85.6239 16.8527
RightUpLeg  -29.5494 -15.932 -7.15336
RightLeg  36.7787 -5.46887 -4.64287
RightFoot  -5.65895 -0.189317 3.03193
RightToes  0.000481921 0.542163 -0.142578
Spine  48.8875 -1.68833 2.9013
Spine1  -7.8801 -0.708672 -0.33532
HEad  -32.3694 0.665371 3.33876
LeftShoulder1  8.483 -15.0357 -39.5301
LeftArm  2.48077 -14.3233 -42.7046
LeftForeArm  -175.765 -61.7616 -162.93
LeftHand  -0.25398 0.0180481 5.50724
RightShoulder  4.81936 10.8018 27.6668
RightArm  0.923385 9.30555 46.8726
RightForeArm  164.227 63.29 159.832
RightHand  -1.39492 3.53766 -18.3084
LeftUpLeg  -28.6145 11.1868 4.36184
LeftLeg  35.4838 4.21679 3.5856
LeftFoot  -5.34724 0.369723 -6.43332
LeftToes  1.06245e-005 4.65868e-005 -8.65517e-006
1133
root  8.16047 37.9115 -2.29276 15.6753 85.3359 13.3746
RightUpLeg  -29.1689 -16.7004 -5.71562
RightLeg  36.012 -4.90583 -4.08531
RightFoot  -5.90206 -0.118678 1.65421
RightToes  0.000481921 0.542163 -0.142578
Spine  48.1239 -1.83962 3.356
Spine1  -7.73876 -0.652823 -0.793835
HEad  -32.2847 0.706028 3.33057
LeftShoulder1  8.37475 -14.7958 -39.5393
LeftArm  2.45102 -14.3214 -42.7708
LeftForeArm  -175.674 -61.4609 -163.144
LeftHand  -0.25398 0.0180481 5.50724
RightShoulder  4.84844 10.792 27.9005
RightArm  0.87778 9.31443 46.5603
RightForeArm  163.877 63.645 159.499
RightHand  -1.41936 3.64163 -18.4151
LeftUpLeg  -28.0612 11.6504 5.21594
LeftLeg  34.5251 6.01865 4.78491
LeftFoot  -3.74159 0.416207 -5.9747
LeftToes  1.06245e-005 4.65868e-005 -8.65517e-006
1134
root  8.15241 38.0997 -1.70241 18.4341 85.4659 15.8107
RightUpLeg  -28.887 -16.9809 -4.65627
RightLeg  34.916 -5.17087 -4.12789
RightFoot  -5.93691 -0.0552923 0.321684
RightToes  0.000481921 0.542163 -0.142578
Spine  47.3583 -1.77088 3.18975
Spine1  -7.66985 -0.736616 -0.568277
HEad  -32.2957 0.712286 3.25522
LeftShoulder1  8.29711 -14.5285 -39.7755
LeftArm  2.41622 -14.4117 -42.7991
LeftForeArm  -175.487 -61.3432 -163.241
LeftHand  -0.25398 0.0180481 5.50724
RightShoulder  4.82272 10.722 27.8861
RightArm  0.774683 9.16151 46.286
RightForeArm  163.616 63.73 159.4
RightHand  -1.4642 3.85742 -18.557
LeftUpLeg  -28.1844 13.0078 4.68577
LeftLeg  33.5682 9.29009 6.93032
LeftFoot  -1.71215 0.33255 -3.84047
LeftToes  1.06245e-005 4.65868e-005 -8.65517e-006
1135
root  8.11898 38.2779 -1.16799 25.0171 86.0568 21.9801
RightUpLeg  -28.6209 -16.831 -3.9906
RightLeg  33.8583 -6.14238 -4.67181
RightFoot  -5.76663 -0.0329299 -0.128434
RightToes  0.000481921 0.542163 -0.142578
Spine  46.6687 -1.75928 3.05845
Spine1  -7.60638 -0.837898 -0.251895
HEad  -32.3172 0.561434 3.24271
LeftShoulder1  8.30128 -14.3806 -40.1581
LeftArm  2.66467 -14.5719 -43.0524
LeftForeArm  -175.164 -61.3736 -163.249
LeftHand  -0.25398 0.0180481 5.50724
RightShoulder  4.71561 10.515 27.6151
RightArm  0.483362 8.63587 45.9116
RightForeArm  163.079 63.4171 159.609
RightHand  -1.4874 3.91904 -18.723
LeftUpLeg  -29.0701 15.628 2.67124
LeftLeg  33.3164 10.7745 7.88683
LeftFoot  -1.06162 0.165521 -1.7284
LeftToes  1.06245e-005 4.65868e-005 -8.65517e-006
1136
root  8.10548 38.435 -0.754465 30.8259 86.6044 27.6712
RightUpLeg  -28.0761 -16.4647 -3.49469
RightLeg  32.9775 -7.07081 -5.1677
RightFoot  -5.71278 -0.0255191 -0.27194
RightToes  0.000481921 0.542163 -0.142578
Spine  46.2138 -1.90649 3.38145
Spine1  -7.43473 -0.802404 -0.373918
HEad  -32.351 0.301246 3.26473
LeftShoulder1  8.34276 -14.3488 -40.456
LeftArm  3.11374 -14.6588 -43.597
LeftForeArm  -174.939 -61.3919 -163.257
LeftHand  -0.25398 0.0180481 5.50724
RightShoulder  4.58401 10.2518 27.2932
RightArm  0.0814136 8.12798 45.3481
RightForeArm  162.487 63.0034 159.892
RightHand  -1.48463 3.82203 -18.8759
LeftUpLeg  -30.2249 19.1677 -0.191357
LeftLeg  34.61 8.69651 6.73842
LeftFoot  -2.79824 0.187362 -2.3768
LeftToes  1.06245e-005 4.65868e-005 -8.65517e-006
1137
root  8.11104 38.5413 -0.440649 38.3559 87.3035 35.1416
RightUpLeg  -27.6102 -17.1106 -2.91835
RightLeg  32.2809 -7.29643 -5.19057
RightFoot  -5.84399 0.00402566 -0.907603
RightToes  0.000481921 0.542163 -0.142578
Spine  45.8118 -2.22646 3.94145
Spine1  -7.32568 -0.928657 -0.300593
HEad  -32.2402 0.0497063 3.20705
LeftShoulder1  8.36991 -14.3699 -40.5472
LeftArm  3.49438 -14.559 -44.1434
LeftForeArm  -174.962 -61.3874 -163.258
LeftHand  -0.25398 0.0180481 5.50724
RightShoulder  4.50517 10.0992 27.0809
RightArm  -0.360324 7.88885 44.6342
RightForeArm  162.281 62.799 160.038
RightHand  -1.47663 3.73565 -18.9461
LeftUpLeg  -31.0792 21.5853 -3.31951
LeftLeg  36.3435 6.03857 5.13326
LeftFoot  -5.66497 0.272484 -4.82242
LeftToes  1.06245e-005 4.65868e-005 -8.65517e-006
1138
root  8.14614 38.6337 -0.195683 43.0477 87.7129 39.6561
RightUpLeg  -27.3542 -18.8874 -2.17257
RightLeg  31.439 -6.54453 -4.54656
RightFoot  -5.67723 0.0452377 -1.68942
RightToes  0.000481921 0.542163 -0.142578
Spine  45.3399 -2.47838 4.39475
Spine1  -7.1283 -0.975048 -0.351868
HEad  -31.7742 -0.123244 2.96567
LeftShoulder1  8.39945 -14.4235 -40.5704
LeftArm  3.69367 -14.209 -44.3134
LeftForeArm  -175.036 -61.4054 -163.239
LeftHand  -0.25398 0.0180481 5.50724
RightShoulder  4.49004 10.0891 26.991
RightArm  -0.726399 7.72006 43.8787
RightForeArm  162.367 62.799 160.046
RightHand  -1.46564 3.69096 -18.8976
LeftUpLeg  -30.465 22.5217 -6.22841
LeftLeg  35.5872 6.03622 4.97165
LeftFoot  -8.26859 0.192591 -5.07241
LeftToes  1.06245e-005 4.65868e-005 -8.65517e-006
